<?xml version="1.0" encoding="UTF-8"?>
<svg width="18px" height="20px" viewBox="0 0 18 20" version="1.1" xmlns="http://www.w3.org/2000/svg" xmlns:xlink="http://www.w3.org/1999/xlink">
    <!-- Generator: Sketch 48.2 (47327) - http://www.bohemiancoding.com/sketch -->
    <title>Combined Shape</title>
    <desc>Created with Sketch.</desc>
    <defs></defs>
    <g id="homepage" stroke="none" stroke-width="1" fill="none" fill-rule="evenodd" transform="translate(-100.000000, -518.000000)">
        <g id="Group-4" transform="translate(100.000000, 518.000000)" fill="#3A3A3B">
            <path d="M4.90906218,0 L17.5555556,0 L17.5555556,20 L0,20 L0,4.42201161 L4.90906218,0 Z M4.16559891,15.6670226 L13.3899566,15.6670226 C13.3899566,13.4578836 11.3250138,11.6670226 8.77777778,11.6670226 C6.23054173,11.6670226 4.16559891,13.4578836 4.16559891,15.6670226 Z M8.77777778,9.99964408 C10.1590794,9.99964408 11.2788455,8.87987791 11.2788455,7.49857633 C11.2788455,6.11727475 10.1590794,4.99750858 8.77777778,4.99750858 C7.3964762,4.99750858 6.27671003,6.11727475 6.27671003,7.49857633 C6.27671003,8.87987791 7.3964762,9.99964408 8.77777778,9.99964408 Z" id="Combined-Shape"></path>
        </g>
    </g>
</svg>