<?xml version="1.0" encoding="UTF-8"?>
<svg width="21px" height="20px" viewBox="0 0 21 20" version="1.1" xmlns="http://www.w3.org/2000/svg" xmlns:xlink="http://www.w3.org/1999/xlink">
    <!-- Generator: Sketch 48.2 (47327) - http://www.bohemiancoding.com/sketch -->
    <title>Shape</title>
    <desc>Created with Sketch.</desc>
    <defs>
        <path d="M186.252799,518 C180.590731,518 176,522.590731 176,528.252799 C176,532.783454 178.937427,536.625751 183.011873,537.981183 C183.524393,538.07506 183.711506,537.758405 183.711506,537.488067 C183.711506,537.244003 183.702115,536.435513 183.697108,535.579445 C180.846049,536.198958 180.243417,534.370436 180.243417,534.370436 C179.776594,533.186458 179.105116,532.871064 179.105116,532.871064 C178.173333,532.23527 179.175804,532.247786 179.175804,532.247786 C180.205209,532.319115 180.747166,533.304104 180.747166,533.304104 C181.662068,534.87106 183.147663,534.417995 183.730891,534.155167 C183.824087,533.494342 184.089418,533.041276 184.381703,532.785958 C182.105742,532.526894 179.711513,531.647036 179.711513,527.718372 C179.711513,526.598213 180.111392,525.684593 180.765949,524.966817 C180.661439,524.706492 180.308498,523.66331 180.867316,522.252188 C180.867316,522.252188 181.727149,521.976844 183.687076,523.3035 C184.504336,523.075095 185.381071,522.962455 186.252779,522.95869 C187.123866,522.962455 188.001201,523.076337 188.819743,523.304742 C190.775945,521.976844 191.63702,522.25343 191.63702,522.25343 C192.19772,523.665813 191.844779,524.707733 191.739648,524.966817 C192.396708,525.684593 192.793464,526.598233 192.793464,527.718372 C192.793464,531.657048 190.39547,532.524371 188.111379,532.778448 C188.4806,533.096345 188.807248,533.719623 188.807248,534.675817 C188.807248,536.046288 188.79347,537.151407 188.79347,537.489329 C188.79347,537.76217 188.979943,538.081308 189.499352,537.981183 C193.570694,536.623248 196.505598,532.780951 196.505598,528.252799 C196.505598,522.590731 191.914867,518 186.252799,518 Z" id="path-1"></path>
    </defs>
    <g id="homepage" stroke="none" stroke-width="1" fill="none" fill-rule="evenodd" transform="translate(-176.000000, -518.000000)">
        <g id="Shape" fill-rule="nonzero">
            <use fill="#000000" fill-rule="evenodd" xlink:href="#path-1"></use>
            <use fill="#3A3A3B" fill-rule="evenodd" xlink:href="#path-1"></use>
        </g>
    </g>
</svg>