<?xml version="1.0" encoding="UTF-8"?>
<svg width="23px" height="18px" viewBox="0 0 23 18" version="1.1" xmlns="http://www.w3.org/2000/svg" xmlns:xlink="http://www.w3.org/1999/xlink">
    <!-- Generator: Sketch 48.2 (47327) - http://www.bohemiancoding.com/sketch -->
    <title>Shape</title>
    <desc>Created with Sketch.</desc>
    <defs>
        <path d="M159.159648,521.129683 C158.344048,521.491082 157.468922,521.736178 156.54944,521.8456 C157.488294,521.283389 158.206963,520.391643 158.547577,519.332323 C157.666911,519.852967 156.694818,520.231021 155.659033,520.435962 C154.829602,519.551132 153.649816,519 152.341236,519 C149.830747,519 147.795206,521.035541 147.795206,523.544654 C147.795206,523.900513 147.835361,524.248079 147.91292,524.580438 C144.135418,524.390705 140.785794,522.580889 138.543936,519.830807 C138.15205,520.501029 137.929114,521.281977 137.929114,522.115608 C137.929114,523.69282 138.732257,525.084463 139.950823,525.89865 C139.20583,525.873738 138.505157,525.668798 137.891746,525.328147 L137.891746,525.384922 C137.891746,527.586624 139.459254,529.42414 141.537702,529.84235 C141.156896,529.94482 140.755342,530.001595 140.339921,530.001595 C140.046377,530.001595 139.762502,529.97252 139.484166,529.91712 C140.062961,531.724185 141.741267,533.038269 143.729737,533.074296 C142.174685,534.292861 140.213915,535.01707 138.084231,535.01707 C137.717293,535.01707 137.355858,534.994911 137,534.954755 C139.012005,536.246716 141.400653,537 143.967917,537 C152.330229,537 156.901207,530.073614 156.901207,524.06671 L156.885963,523.478211 C157.779085,522.841193 158.551741,522.040837 159.159648,521.129683 Z" id="path-1"></path>
    </defs>
    <g id="homepage" stroke="none" stroke-width="1" fill="none" fill-rule="evenodd" transform="translate(-137.000000, -519.000000)">
        <g id="Shape" fill-rule="nonzero">
            <use fill="#059FF5" fill-rule="evenodd" xlink:href="#path-1"></use>
            <use fill="#3A3A3B" fill-rule="evenodd" xlink:href="#path-1"></use>
        </g>
    </g>
</svg>