<?xml version="1.0" encoding="UTF-8"?>
<svg width="122px" height="83px" viewBox="0 0 122 83" version="1.1" xmlns="http://www.w3.org/2000/svg" xmlns:xlink="http://www.w3.org/1999/xlink">
    <!-- Generator: Sketch 48.2 (47327) - http://www.bohemiancoding.com/sketch -->
    <title>logo</title>
    <desc>Created with Sketch.</desc>
    <defs></defs>
    <g id="homepage" stroke="none" stroke-width="1" fill="none" fill-rule="evenodd" transform="translate(-102.000000, -199.000000)" stroke-linecap="round">
        <path d="M134.000223,232.229812 C134.000223,232.229812 114.806377,257.982593 113.589235,264.068304 M137.52702,249.091988 C137.999182,249.091988 139.680078,247.735805 140.169075,247.749209 C140.658071,247.762613 140.658006,249.477744 141.116401,249.136401 C141.90162,248.55169 145.879527,243.476386 145.478976,243.187897 C145.294711,243.055183 143.417542,245.461609 143.025555,247.423171 C142.565454,249.725594 144.21482,251.499697 153.989938,249.091988 M176.268395,248.893965 C187.889726,249.800046 196.287678,223.52804 195.566756,223.376649 C194.845833,223.225258 178.157105,246.772523 190.62473,251.459709 C203.092355,256.146896 223,248.893966 223,248.893966 M135.984554,271.553729 C135.984554,271.553729 153.389688,251.592597 155.884829,246.967456 C158.379971,242.342316 165.743681,229.684037 163.187682,228.527752 C160.631684,227.371467 151.746546,246.237171 154.850258,250.497169 C157.953971,254.757167 179.25396,228.040895 179.25396,228.040895 C179.25396,228.040895 197.024236,202.359194 194.163952,200.107481 C191.303667,197.855768 177.915103,231.692322 177.002246,235.161177 C176.08939,238.630032 167.325966,258.04345 169.577679,280.560581 M106.286284,243.011744 C106.286284,243.011744 163.126825,219.520899 165.926252,224.14604 C168.725679,228.77118 103,263.824876 103,263.824876" id="logo" stroke="#818182" stroke-width="1.5"></path>
    </g>
</svg>